<svg width="457" height="399" viewBox="0 0 457 399" fill="none" xmlns="http://www.w3.org/2000/svg">
<g opacity="0.35">
<path opacity="0.5" d="M371.461 397.5L455 1M349.085 397.5L443.066 1M326.708 397.5L431.629 1M303.337 397.5L419.695 1.5M279.966 397.5L407.761 1.5M256.595 397.5L394.832 1.5M231.235 397.5L382.401 2M205.875 398L368.477 2M179.52 398L354.554 2M152.171 397.5L340.134 2M124.325 397.5L324.719 2M95.4841 397.5L308.807 2M65.1515 397.5L292.397 2M34.3216 397.5L274.993 2M2 398L258.584 2" stroke="url(#paint0_linear_2_106338)" stroke-width="3"/>
</g>
<defs>
<linearGradient id="paint0_linear_2_106338" x1="2" y1="398" x2="514.987" y2="292.396" gradientUnits="userSpaceOnUse">
<stop stop-color="#1975FF"/>
<stop offset="1" stop-color="#33A9FF"/>
</linearGradient>
</defs>
</svg>
